<svg width="16" height="16" viewBox="0 0 16 16" fill="none" xmlns="http://www.w3.org/2000/svg">
<g clip-path="url(#clip0_214_4163)">
<path d="M13.794 3.58583L13.7941 3.58597C13.8751 3.66512 13.9395 3.75966 13.9834 3.86403C14.0273 3.96836 14.05 4.08043 14.05 4.19363C14.05 4.19366 14.05 4.19369 14.05 4.19372V11.2C14.05 11.4255 13.9604 11.6417 13.801 11.8011C13.6416 11.9605 13.4254 12.05 13.2 12.05H6.8C6.57456 12.05 6.35836 11.9605 6.19896 11.8011C6.03955 11.6417 5.95 11.4255 5.95 11.2V1.60003C5.95 1.3746 6.03955 1.1584 6.19896 0.99899C6.35836 0.839584 6.57456 0.750031 6.8 0.750031H10.5479C10.5479 0.750031 10.548 0.750031 10.548 0.750031C10.7701 0.750083 10.9833 0.837032 11.1421 0.99228L13.794 3.58583Z" stroke="#7C7786" stroke-width="1.5" stroke-linecap="round" stroke-linejoin="round"/>
<mask id="path-2-inside-1_214_4163" fill="white">
<path d="M11.6 12.8V14.4C11.6 14.8244 11.4314 15.2313 11.1314 15.5314C10.8313 15.8315 10.4243 16 10 16H3.6C3.17565 16 2.76869 15.8315 2.46863 15.5314C2.16857 15.2313 2 14.8244 2 14.4V5.60003C2 5.17568 2.16857 4.76872 2.46863 4.46866C2.76869 4.1686 3.17565 4.00003 3.6 4.00003H5.2"/>
</mask>
<path d="M13.1 12.8C13.1 11.9716 12.4284 11.3 11.6 11.3C10.7716 11.3 10.1 11.9716 10.1 12.8H13.1ZM2 14.4H0.5H2ZM3.6 4.00003V2.50003V4.00003ZM5.2 5.50003C6.02843 5.50003 6.7 4.82846 6.7 4.00003C6.7 3.1716 6.02843 2.50003 5.2 2.50003V5.50003ZM10.1 12.8V14.4H13.1V12.8H10.1ZM10.1 14.4C10.1 14.4266 10.0895 14.452 10.0707 14.4707L12.192 16.5921C12.7734 16.0107 13.1 15.2222 13.1 14.4H10.1ZM10.0707 14.4707C10.052 14.4895 10.0265 14.5 10 14.5V17.5C10.8222 17.5 11.6107 17.1734 12.192 16.5921L10.0707 14.4707ZM10 14.5H3.6V17.5H10V14.5ZM3.6 14.5C3.57348 14.5 3.54804 14.4895 3.52929 14.4707L1.40797 16.5921C1.98933 17.1734 2.77783 17.5 3.6 17.5V14.5ZM3.52929 14.4707C3.51054 14.452 3.5 14.4266 3.5 14.4H0.5C0.5 15.2222 0.826606 16.0107 1.40797 16.5921L3.52929 14.4707ZM3.5 14.4V5.60003H0.5V14.4H3.5ZM3.5 5.60003C3.5 5.57351 3.51054 5.54807 3.52929 5.52932L1.40797 3.408C0.826606 3.98936 0.5 4.77786 0.5 5.60003H3.5ZM3.52929 5.52932C3.54804 5.51057 3.57348 5.50003 3.6 5.50003V2.50003C2.77783 2.50003 1.98933 2.82664 1.40797 3.408L3.52929 5.52932ZM3.6 5.50003H5.2V2.50003H3.6V5.50003Z" fill="#7C7786" mask="url(#path-2-inside-1_214_4163)"/>
</g>
<defs>
<clipPath id="clip0_214_4163">
<rect width="16" height="16" fill="white"/>
</clipPath>
</defs>
</svg>
