<svg width="16" height="16" viewBox="0 0 16 16" fill="none" xmlns="http://www.w3.org/2000/svg">
<path d="M2 4H3.33333H14" stroke="#7C7786" stroke-width="1.5" stroke-linecap="round" stroke-linejoin="round"/>
<path d="M12.6667 4.00001V13.3333C12.6667 13.687 12.5262 14.0261 12.2761 14.2762C12.0261 14.5262 11.687 14.6667 11.3333 14.6667H4.66667C4.31305 14.6667 3.97391 14.5262 3.72386 14.2762C3.47381 14.0261 3.33334 13.687 3.33334 13.3333V4.00001M5.33334 4.00001V2.66668C5.33334 2.31305 5.47381 1.97392 5.72386 1.72387C5.97391 1.47382 6.31305 1.33334 6.66667 1.33334H9.33334C9.68696 1.33334 10.0261 1.47382 10.2761 1.72387C10.5262 1.97392 10.6667 2.31305 10.6667 2.66668V4.00001" stroke="#7C7786" stroke-width="1.5" stroke-linecap="round" stroke-linejoin="round"/>
<path d="M6.66666 7.33334V11.3333" stroke="#7C7786" stroke-width="1.5" stroke-linecap="round" stroke-linejoin="round"/>
<path d="M9.33334 7.33334V11.3333" stroke="#7C7786" stroke-width="1.5" stroke-linecap="round" stroke-linejoin="round"/>
</svg>
