<svg width="249" height="80" viewBox="0 0 249 80" fill="none" xmlns="http://www.w3.org/2000/svg">
<path d="M2.68127 21.6954H20.9083V16.6919H2.68127V21.6954ZM34.4399 63.4507H40.039L28.4237 18.1215H22.8841L34.4399 63.4507ZM44.0024 66.9651H72.0574V61.8425H44.0024V66.9651ZM89.2397 67.2032L93.35 63.0936C87.0955 58.1494 82.5689 50.8229 82.5689 40.4585C82.5689 30.0941 87.0955 22.8272 93.35 17.8236L89.2397 13.7137C82.2111 18.9554 76.5525 27.9497 76.5525 40.4585C76.5525 52.9672 82.2111 61.9616 89.2397 67.2032ZM121.532 15.6793L116.946 17.228C118.435 20.3254 121.83 29.5581 122.782 32.9533L127.429 31.345C126.416 28.0093 122.842 18.5385 121.532 15.6793ZM147.979 19.4915L142.499 17.9428C141.308 26.8776 137.674 36.4081 132.968 42.4241C126.952 50.0485 118.077 55.7668 109.559 58.2685L113.669 62.4381C122.068 59.4599 130.884 53.3246 137.019 45.2237C141.903 38.7907 145.119 30.2728 146.906 22.8867C147.145 21.9337 147.562 20.5041 147.979 19.4915ZM104.913 19.2532L100.207 20.9806C101.637 23.5419 105.747 33.6085 106.879 37.3016L111.584 35.5741C110.214 31.7024 106.462 22.5889 104.913 19.2532ZM158.998 67.2032C166.087 61.9616 171.686 52.9672 171.686 40.4585C171.686 27.9497 166.087 18.9554 158.998 13.7137L154.888 17.8236C161.203 22.8272 165.67 30.0941 165.67 40.4585C165.67 50.8229 161.203 58.1494 154.888 63.0936L158.998 67.2032ZM176.161 66.9651H204.216V61.8425H176.161V66.9651ZM208.294 63.4507H213.893L225.27 18.1215H219.79L208.294 63.4507ZM229.653 21.6954H247.88V16.6919H229.653V21.6954Z" fill="#7C7786"/>
</svg>
